<svg width="12" height="12" viewBox="0 0 12 12" fill="none" xmlns="http://www.w3.org/2000/svg">
<path fill-rule="evenodd" clip-rule="evenodd" d="M7.25006 1.56757C7.25006 1.01528 6.80234 0.567566 6.25006 0.567566C5.69778 0.567566 5.25006 1.01528 5.25006 1.56757V5.25H1.56763C1.01534 5.25 0.567627 5.69771 0.567627 6.25C0.567627 6.80228 1.01534 7.25 1.56763 7.25H5.25006V10.9324C5.25006 11.4847 5.69778 11.9324 6.25006 11.9324C6.80234 11.9324 7.25006 11.4847 7.25006 10.9324V7.25H10.9325C11.4848 7.25 11.9325 6.80228 11.9325 6.25C11.9325 5.69771 11.4848 5.25 10.9325 5.25H7.25006V1.56757Z" fill="black" fill-opacity="0.89"/>
</svg>
