<svg width="209" height="49" viewBox="0 0 209 49" fill="none" xmlns="http://www.w3.org/2000/svg">
<rect width="78" height="49" rx="8" fill="#FF5555"/>
<path d="M8.65909 12.7273H14.1705L19.4773 22.75H19.7045L25.0114 12.7273H30.5227L22.0341 27.7727V36H17.1477V27.7727L8.65909 12.7273ZM37.3494 36.3409C35.5843 36.3409 34.0578 35.9659 32.7699 35.2159C31.4896 34.4583 30.5009 33.4053 29.804 32.0568C29.107 30.7008 28.7585 29.1288 28.7585 27.3409C28.7585 25.5379 29.107 23.9621 29.804 22.6136C30.5009 21.2576 31.4896 20.2045 32.7699 19.4545C34.0578 18.697 35.5843 18.3182 37.3494 18.3182C39.1146 18.3182 40.6373 18.697 41.9176 19.4545C43.2055 20.2045 44.1979 21.2576 44.8949 22.6136C45.5919 23.9621 45.9403 25.5379 45.9403 27.3409C45.9403 29.1288 45.5919 30.7008 44.8949 32.0568C44.1979 33.4053 43.2055 34.4583 41.9176 35.2159C40.6373 35.9659 39.1146 36.3409 37.3494 36.3409ZM37.3722 32.5909C38.1752 32.5909 38.8456 32.3636 39.3835 31.9091C39.9214 31.447 40.3267 30.8182 40.5994 30.0227C40.8797 29.2273 41.0199 28.322 41.0199 27.3068C41.0199 26.2917 40.8797 25.3864 40.5994 24.5909C40.3267 23.7955 39.9214 23.1667 39.3835 22.7045C38.8456 22.2424 38.1752 22.0114 37.3722 22.0114C36.5616 22.0114 35.8797 22.2424 35.3267 22.7045C34.7813 23.1667 34.3684 23.7955 34.0881 24.5909C33.8153 25.3864 33.679 26.2917 33.679 27.3068C33.679 28.322 33.8153 29.2273 34.0881 30.0227C34.3684 30.8182 34.7813 31.447 35.3267 31.9091C35.8797 32.3636 36.5616 32.5909 37.3722 32.5909ZM60.2812 28.5682V18.5455H65.1222V36H60.4744V32.8295H60.2926C59.8987 33.8523 59.2434 34.6742 58.3267 35.2955C57.4176 35.9167 56.3078 36.2273 54.9972 36.2273C53.8305 36.2273 52.804 35.9621 51.9176 35.4318C51.0313 34.9015 50.3381 34.1477 49.8381 33.1705C49.3456 32.1932 49.0956 31.0227 49.0881 29.6591V18.5455H53.929V28.7955C53.9366 29.8258 54.2131 30.6402 54.7585 31.2386C55.304 31.8371 56.035 32.1364 56.9517 32.1364C57.535 32.1364 58.0805 32.0038 58.5881 31.7386C59.0956 31.4659 59.5047 31.0644 59.8153 30.5341C60.1335 30.0038 60.2888 29.3485 60.2812 28.5682Z" fill="white"/>
<path d="M99.554 36H91.304V12.7273H99.6222C101.963 12.7273 103.978 13.1932 105.668 14.125C107.357 15.0492 108.656 16.3788 109.565 18.1136C110.482 19.8485 110.94 21.9242 110.94 24.3409C110.94 26.7652 110.482 28.8485 109.565 30.5909C108.656 32.3333 107.349 33.6705 105.645 34.6023C103.948 35.5341 101.918 36 99.554 36ZM96.2244 31.7841H99.3494C100.804 31.7841 102.027 31.5265 103.02 31.0114C104.02 30.4886 104.77 29.6818 105.27 28.5909C105.777 27.4924 106.031 26.0758 106.031 24.3409C106.031 22.6212 105.777 21.2159 105.27 20.125C104.77 19.0341 104.024 18.2311 103.031 17.7159C102.039 17.2008 100.815 16.9432 99.3608 16.9432H96.2244V31.7841ZM122.381 36.3409C120.616 36.3409 119.089 35.9659 117.801 35.2159C116.521 34.4583 115.532 33.4053 114.835 32.0568C114.138 30.7008 113.79 29.1288 113.79 27.3409C113.79 25.5379 114.138 23.9621 114.835 22.6136C115.532 21.2576 116.521 20.2045 117.801 19.4545C119.089 18.697 120.616 18.3182 122.381 18.3182C124.146 18.3182 125.669 18.697 126.949 19.4545C128.237 20.2045 129.229 21.2576 129.926 22.6136C130.623 23.9621 130.972 25.5379 130.972 27.3409C130.972 29.1288 130.623 30.7008 129.926 32.0568C129.229 33.4053 128.237 34.4583 126.949 35.2159C125.669 35.9659 124.146 36.3409 122.381 36.3409ZM122.403 32.5909C123.206 32.5909 123.877 32.3636 124.415 31.9091C124.953 31.447 125.358 30.8182 125.631 30.0227C125.911 29.2273 126.051 28.322 126.051 27.3068C126.051 26.2917 125.911 25.3864 125.631 24.5909C125.358 23.7955 124.953 23.1667 124.415 22.7045C123.877 22.2424 123.206 22.0114 122.403 22.0114C121.593 22.0114 120.911 22.2424 120.358 22.7045C119.813 23.1667 119.4 23.7955 119.119 24.5909C118.847 25.3864 118.71 26.2917 118.71 27.3068C118.71 28.322 118.847 29.2273 119.119 30.0227C119.4 30.8182 119.813 31.447 120.358 31.9091C120.911 32.3636 121.593 32.5909 122.403 32.5909ZM148.642 23.5227L144.21 23.7955C144.134 23.4167 143.972 23.0758 143.722 22.7727C143.472 22.4621 143.142 22.2159 142.733 22.0341C142.331 21.8447 141.85 21.75 141.29 21.75C140.54 21.75 139.907 21.9091 139.392 22.2273C138.877 22.5379 138.619 22.9545 138.619 23.4773C138.619 23.8939 138.786 24.2462 139.119 24.5341C139.453 24.822 140.025 25.053 140.835 25.2273L143.994 25.8636C145.691 26.2121 146.956 26.7727 147.79 27.5455C148.623 28.3182 149.04 29.3333 149.04 30.5909C149.04 31.7348 148.703 32.7386 148.028 33.6023C147.362 34.4659 146.445 35.1402 145.278 35.625C144.119 36.1023 142.782 36.3409 141.267 36.3409C138.956 36.3409 137.116 35.8598 135.744 34.8977C134.381 33.928 133.581 32.6098 133.347 30.9432L138.108 30.6932C138.252 31.3977 138.6 31.9356 139.153 32.3068C139.706 32.6705 140.415 32.8523 141.278 32.8523C142.127 32.8523 142.809 32.6894 143.324 32.3636C143.847 32.0303 144.112 31.6023 144.119 31.0795C144.112 30.6402 143.926 30.2803 143.562 30C143.199 29.7121 142.638 29.4924 141.881 29.3409L138.858 28.7386C137.153 28.3977 135.884 27.8068 135.051 26.9659C134.225 26.125 133.812 25.053 133.812 23.75C133.812 22.6288 134.116 21.6629 134.722 20.8523C135.335 20.0417 136.195 19.4167 137.301 18.9773C138.415 18.5379 139.718 18.3182 141.21 18.3182C143.415 18.3182 145.15 18.7841 146.415 19.7159C147.688 20.6477 148.43 21.9167 148.642 23.5227ZM163.281 28.5682V18.5455H168.122V36H163.474V32.8295H163.293C162.899 33.8523 162.243 34.6742 161.327 35.2955C160.418 35.9167 159.308 36.2273 157.997 36.2273C156.83 36.2273 155.804 35.9621 154.918 35.4318C154.031 34.9015 153.338 34.1477 152.838 33.1705C152.346 32.1932 152.096 31.0227 152.088 29.6591V18.5455H156.929V28.7955C156.937 29.8258 157.213 30.6402 157.759 31.2386C158.304 31.8371 159.035 32.1364 159.952 32.1364C160.535 32.1364 161.08 32.0038 161.588 31.7386C162.096 31.4659 162.505 31.0644 162.815 30.5341C163.134 30.0038 163.289 29.3485 163.281 28.5682ZM179.858 42.9091C178.29 42.9091 176.945 42.6932 175.824 42.2614C174.71 41.8371 173.824 41.2576 173.165 40.5227C172.506 39.7879 172.078 38.9621 171.881 38.0455L176.358 37.4432C176.494 37.7917 176.71 38.1174 177.006 38.4205C177.301 38.7235 177.691 38.9659 178.176 39.1477C178.669 39.3371 179.267 39.4318 179.972 39.4318C181.025 39.4318 181.892 39.1742 182.574 38.6591C183.263 38.1515 183.608 37.2992 183.608 36.1023V32.9091H183.403C183.191 33.3939 182.873 33.8523 182.449 34.2841C182.025 34.7159 181.479 35.0682 180.812 35.3409C180.146 35.6136 179.35 35.75 178.426 35.75C177.116 35.75 175.922 35.447 174.847 34.8409C173.778 34.2273 172.926 33.2917 172.29 32.0341C171.661 30.7689 171.347 29.1705 171.347 27.2386C171.347 25.2614 171.669 23.6098 172.312 22.2841C172.956 20.9583 173.813 19.9659 174.881 19.3068C175.956 18.6477 177.134 18.3182 178.415 18.3182C179.392 18.3182 180.21 18.4848 180.869 18.8182C181.528 19.1439 182.059 19.553 182.46 20.0455C182.869 20.5303 183.184 21.0076 183.403 21.4773H183.585V18.5455H188.392V36.1705C188.392 37.6553 188.028 38.8977 187.301 39.8977C186.574 40.8977 185.566 41.6477 184.278 42.1477C182.998 42.6553 181.525 42.9091 179.858 42.9091ZM179.96 32.1136C180.741 32.1136 181.4 31.9205 181.938 31.5341C182.483 31.1402 182.9 30.5795 183.188 29.8523C183.483 29.1174 183.631 28.2386 183.631 27.2159C183.631 26.1932 183.487 25.3068 183.199 24.5568C182.911 23.7992 182.494 23.2121 181.949 22.7955C181.403 22.3788 180.741 22.1705 179.96 22.1705C179.165 22.1705 178.494 22.3864 177.949 22.8182C177.403 23.2424 176.991 23.8333 176.71 24.5909C176.43 25.3485 176.29 26.2235 176.29 27.2159C176.29 28.2235 176.43 29.0947 176.71 29.8295C176.998 30.5568 177.411 31.1212 177.949 31.5227C178.494 31.9167 179.165 32.1136 179.96 32.1136Z" fill="black"/>
</svg>
