<svg width="0" height="0">

<symbol id="top-icon-01" xmlns="http://www.w3.org/2000/svg" viewBox="0 0 28 28" fill="currentColor">
<path d="M1.95085 25.4602C2.1516 26.2684 2.96136 26.4505 3.71797 26.6968C4.77923 27.0426 5.87652 27.2824 6.97632 27.4773C9.48176 27.9206 12.0724 28.1176 14.6154 27.928C15.8047 27.839 16.8708 27.5879 17.7371 26.7205C18.4102 26.0453 18.3716 24.5352 18.4357 23.6622C18.6147 21.2082 18.3731 18.8539 19.0797 16.4659C19.3429 15.5746 19.6284 13.8187 20.5185 13.343C21.1629 12.9989 21.3688 13.0169 21.5786 13.698C21.7454 14.2466 21.8461 14.8186 21.9409 15.3842C22.372 17.9869 22.9067 27.0442 22.9067 27.3132C22.9067 27.5388 23.8215 27.3492 23.9453 27.2873C24.3986 27.057 24.1042 25.4444 24.1042 25.0186C24.1042 23.6973 24.1269 22.3786 24.1838 21.0595C24.2933 18.443 24.5368 15.8247 24.9262 13.2331C25.1285 11.8912 25.3754 10.5578 25.6771 9.23527C25.8196 8.61784 25.9668 8.00028 26.1145 7.38233C26.3362 6.45409 26.224 5.22065 26.224 5.22065C26.123 4.73492 25.8935 4.28174 25.6168 3.87345C24.853 2.74861 23.8973 1.76575 22.8534 0.899891C22.5341 0.634705 22.2105 0.355093 21.8659 0.123148C21.3155 -0.0950567 21.429 -0.0578816 21.0837 0.517649C19.8487 2.57443 18.3289 4.45599 17.2243 6.58974C16.0385 8.87892 15.2462 11.387 13.9515 13.617C13.3018 14.7354 12.5402 15.3587 11.2688 15.6277C10.72 15.7453 10.207 15.9181 9.73087 16.2212C9.27747 16.5088 8.94711 16.9431 8.47672 17.2036C6.52532 18.2796 3.68205 17.6866 2.09082 19.5274C1.46432 20.2523 1.8794 21.3871 1.92029 22.2563C1.97057 23.2599 1.70795 24.4927 1.95085 25.4602Z"/>
</symbol>

<symbol id="top-icon-02" xmlns="http://www.w3.org/2000/svg" viewBox="0 0 30 30" fill="currentColor">
<path d="M21.9736 10.6666L17.1578 26.7193L29.9999 10.6666H21.9736Z"/>
<path d="M8.02635 10.6666H0L12.8421 26.7193L8.02635 10.6666Z"/>
<path d="M29.7049 8.89704L23.3114 2.50359C23.1466 2.33876 22.9231 2.24619 22.6899 2.24619H19.4344L21.9285 8.89704H29.7049Z"/>
<path d="M8.07149 8.89704L10.5655 2.24619H7.31007C7.07698 2.24619 6.85339 2.33876 6.68856 2.50359L0.295166 8.89704H8.07149Z"/>
<path d="M20.1262 10.6666H9.8739L15 27.7538L20.1262 10.6666Z"/>
<path d="M9.96143 8.89704H20.0386L17.5445 2.24619H12.4555L9.96143 8.89704Z"/>
</symbol>

<symbol id="top-icon-03" xmlns="http://www.w3.org/2000/svg" viewBox="0 0 30 30" fill="currentColor">
<path d="M3.12496 11.875H6.24994C6.05746 11.875 5.87617 11.7863 5.75746 11.635C5.63869 11.4838 5.59744 11.2863 5.64373 11.0988L6.0325 9.54505C6.24127 8.7088 6.98998 8.12503 7.85125 8.12503H11.875C12.9088 8.12503 13.75 8.96626 13.75 10V11.25C13.75 11.595 13.47 11.875 13.125 11.875H16.875C16.53 11.875 16.25 11.595 16.25 11.25V10C16.25 8.96626 17.0912 8.12503 18.125 8.12503H22.1487C23.01 8.12503 23.7587 8.7088 23.9675 9.54505L24.3562 11.0988C24.4038 11.2851 24.3612 11.4838 24.2425 11.635C24.1237 11.7863 23.9425 11.875 23.75 11.875H26.875C27.22 11.875 27.5 11.595 27.5 11.25V7.50001C27.5 5.77753 26.0975 4.37503 24.375 4.37503H5.62498C3.9025 4.37503 2.5 5.77753 2.5 7.50001V11.25C2.5 11.595 2.77996 11.875 3.12496 11.875Z"/>
<path d="M26.875 13.125H3.12498C1.4025 13.125 0 14.5275 0 16.25V25C0 25.345 0.28002 25.625 0.62502 25.625C0.97002 25.625 1.25004 25.345 1.25004 25V23.125H28.75V25C28.75 25.345 29.03 25.625 29.375 25.625C29.72 25.625 30.0001 25.345 30.0001 25V16.25C30 14.5275 28.5975 13.125 26.875 13.125ZM28.75 21.875H1.24998V20.625H28.75V21.875H28.75Z"/>
</symbol>

<symbol id="top-icon-04" xmlns="http://www.w3.org/2000/svg" viewBox="0 0 30 30" fill="currentColor">
<path d="M22.1195 8.51205C19.4412 8.51194 16.9309 9.82092 15.3976 12.0171C15.2045 12.2929 14.7959 12.2926 14.6031 12.0165C13.0696 9.82045 10.5601 8.51205 7.88164 8.51205H1.2677C0.567611 8.51205 0 9.07967 0 9.77987V12.6134C0.192585 21.3406 9.34479 23.0282 14.7833 20.1761C14.9192 20.1048 15.0815 20.1021 15.2188 20.1705C21.8745 23.4852 29.8898 20.3717 30 12.7783V9.77987C30 9.07967 29.4324 8.51205 28.7322 8.51205H22.1195ZM10.6537 16.8908H8.40826C6.33415 16.8908 4.65272 15.2094 4.65272 13.1353C4.65272 12.8084 4.91773 12.5434 5.24461 12.5434H7.49002C9.56412 12.5434 11.2456 14.2248 11.2456 16.2989C11.2456 16.6258 10.9806 16.8908 10.6537 16.8908ZM25.4042 13.1353C25.4042 15.2094 23.7228 16.8908 21.6487 16.8908H19.4033C19.0764 16.8908 18.8114 16.6258 18.8114 16.2989C18.8114 14.2248 20.4928 12.5434 22.5669 12.5434H24.8123C25.1392 12.5434 25.4042 12.8084 25.4042 13.1353Z"/>
</symbol>

<symbol id="top-icon-05" xmlns="http://www.w3.org/2000/svg" viewBox="0 0 30 30" fill="currentColor">
<path d="M29.4703 17.7328C28.5187 15.3187 26.414 13.5891 23.8969 13.1016L23.1281 11.1516C22.9406 10.6687 22.3969 10.4344 21.914 10.6219L20.5078 11.175C20.5828 10.0875 20.4609 8.68124 19.6547 7.51405C18.8625 6.3703 17.6015 5.69062 15.8953 5.48437L15.0281 3.28124C14.8406 2.80312 14.2969 2.56405 13.814 2.75155L11.8828 3.51562C9.8156 1.98749 7.12498 1.61718 4.72498 2.55937C2.8781 3.28593 1.42029 4.69218 0.623414 6.51562C-0.178149 8.3578 -0.210961 10.4016 0.524976 12.2719C2.04373 16.125 6.39373 18.0328 10.2234 16.5281C12.6281 15.5859 14.3437 13.4812 14.8172 10.9594L16.7484 10.2C16.9781 10.1062 17.1656 9.92812 17.264 9.70312C17.3672 9.47343 17.3672 9.21562 17.2781 8.98124L16.725 7.58437C17.339 7.79999 17.8031 8.1328 18.1125 8.5828C18.8672 9.66562 18.6703 11.2266 18.5203 11.9625L16.2562 12.8484C16.0219 12.9422 15.839 13.1203 15.7406 13.35C15.6375 13.575 15.6328 13.8328 15.7265 14.0672L16.4953 16.0172C15.5437 17.3156 15.0515 18.8672 15.0515 20.4375C15.0515 21.3656 15.225 22.2984 15.5765 23.1937C16.7437 26.1516 19.5797 27.9609 22.5703 27.9609C23.4703 27.9609 24.389 27.7969 25.275 27.45C27.1172 26.7187 28.575 25.3125 29.3719 23.4844C30.1734 21.6469 30.2062 19.6031 29.4703 17.7328ZM8.98123 13.3687C8.49373 13.5609 7.99216 13.65 7.49529 13.65C5.85466 13.65 4.3031 12.6562 3.66091 11.0391C3.26248 10.0172 3.28123 8.89687 3.72185 7.88437C4.15779 6.88593 4.95466 6.11249 5.97185 5.71405C8.07185 4.88905 10.4578 5.93437 11.2922 8.04843C11.6953 9.07499 11.6765 10.1953 11.2359 11.2031C10.7953 12.2062 9.99841 12.9703 8.98123 13.3687ZM24.0328 24.2906C23.5453 24.4828 23.0437 24.5719 22.5469 24.5719C20.9062 24.5719 19.3547 23.5781 18.7125 21.9562C18.3094 20.9297 18.3281 19.8094 18.7687 18.8016C19.2047 17.7984 20.0015 17.0297 21.0187 16.6312C23.1187 15.8062 25.5047 16.8516 26.339 18.9609C26.7422 19.9875 26.7234 21.1078 26.2828 22.1203C25.8422 23.1187 25.05 23.8922 24.0328 24.2906Z"/>
</symbol>

<symbol id="top-icon-06" xmlns="http://www.w3.org/2000/svg" viewBox="0 0 34 30" fill="currentColor">

<path d="M27.625 18.75H24.3313C24.7043 19.0775 24.9997 19.4671 25.2004 19.8963C25.4011 20.3256 25.5029 20.7857 25.5 21.25C25.4991 21.9128 25.2003 22.5482 24.6691 23.0169C24.138 23.4855 23.4178 23.7492 22.6667 23.75H16.2917C16.1038 23.75 15.9236 23.6842 15.7908 23.5669C15.658 23.4497 15.5833 23.2908 15.5833 23.125C15.5833 22.9592 15.658 22.8003 15.7908 22.6831C15.9236 22.5658 16.1038 22.5 16.2917 22.5H22.6667C23.0423 22.4998 23.4025 22.368 23.6681 22.1336C23.9337 21.8993 24.0831 21.5815 24.0833 21.25C24.0833 19.6375 22.574 18.75 19.8333 18.75H12.0417C11.1026 18.7508 10.2023 19.0803 9.53829 19.6661C8.87429 20.252 8.50087 21.0464 8.5 21.875V24.375C8.50087 25.2036 8.87429 25.998 9.53829 26.5839C10.2023 27.1697 11.1026 27.4992 12.0417 27.5H27.625C28.564 27.4992 29.4644 27.1697 30.1284 26.5839C30.7924 25.998 31.1658 25.2036 31.1667 24.375V21.875C31.1658 21.0464 30.7924 20.252 30.1284 19.6661C29.4644 19.0803 28.564 18.7508 27.625 18.75Z"/>
<path d="M7.08333 21.875C7.08492 20.7151 7.60783 19.6031 8.53735 18.783C9.46687 17.9628 10.7271 17.5014 12.0417 17.5H14.1667V10.625C14.1667 10.5429 14.1484 10.4616 14.1129 10.3858C14.0773 10.3099 14.0251 10.241 13.9593 10.1829C13.8935 10.1249 13.8154 10.0789 13.7295 10.0475C13.6435 10.0161 13.5514 9.99995 13.4583 10H9.20833V8.66119C9.81493 8.52332 10.3526 8.21184 10.7371 7.77553C11.1216 7.33922 11.3313 6.8027 11.3333 6.25C11.3333 5.13184 9.85164 2.5 8.5 2.5C7.14835 2.5 5.66666 5.13184 5.66666 6.25C5.66867 6.8027 5.87835 7.33922 6.26288 7.77553C6.6474 8.21184 7.18506 8.52332 7.79166 8.66119V10H3.54166C3.44863 9.99995 3.35649 10.0161 3.27053 10.0475C3.18456 10.0789 3.10646 10.1249 3.04067 10.1829C2.97488 10.241 2.92271 10.3099 2.88713 10.3858C2.85156 10.4616 2.83327 10.5429 2.83333 10.625V26.875C2.83327 26.9571 2.85156 27.0384 2.88713 27.1142C2.92271 27.1901 2.97488 27.259 3.04067 27.3171C3.10646 27.3751 3.18456 27.4211 3.27053 27.4525C3.35649 27.4839 3.44863 27.5 3.54166 27.5H8.58259C8.10848 27.0941 7.7315 26.6084 7.47397 26.0716C7.21645 25.5348 7.08361 24.9579 7.08333 24.375V21.875Z"/>
<path d="M20.5417 16.2463H21.9583C22.1462 16.2463 22.3264 16.1805 22.4592 16.0633C22.592 15.9461 22.6667 15.7871 22.6667 15.6213C22.6667 14.7925 22.2935 13.9977 21.6293 13.4116C20.9651 12.8256 20.0643 12.4963 19.125 12.4963H17.7083C17.5205 12.4963 17.3403 12.5622 17.2075 12.6794C17.0746 12.7966 17 12.9556 17 13.1213C17 13.5317 17.0916 13.9381 17.2696 14.3172C17.4476 14.6964 17.7085 15.0409 18.0373 15.331C18.3662 15.6212 18.7566 15.8514 19.1863 16.0085C19.616 16.1655 20.0766 16.2463 20.5417 16.2463Z"/>
<path d="M23.375 13.4039C23.9789 12.5071 24.9235 11.8284 26.0411 11.4882C25.804 10.8585 25.4058 10.2854 24.8775 9.81323L23.8758 8.92945C23.7405 8.81656 23.5613 8.75366 23.375 8.75366C23.1887 8.75366 23.0095 8.81656 22.8742 8.92945L21.8733 9.81323C21.3448 10.2854 20.9465 10.8586 20.7092 11.4884C21.8266 11.8285 22.7712 12.5072 23.375 13.4039Z"/>
<path d="M24.0833 15.6213C24.0833 15.7871 24.158 15.9461 24.2908 16.0633C24.4236 16.1805 24.6038 16.2463 24.7917 16.2463H26.2083C26.6734 16.2463 27.134 16.1655 27.5637 16.0085C27.9934 15.8514 28.3838 15.6212 28.7127 15.331C29.0415 15.0409 29.3024 14.6964 29.4804 14.3172C29.6584 13.9381 29.75 13.5317 29.75 13.1213C29.75 12.9556 29.6754 12.7966 29.5425 12.6794C29.4097 12.5622 29.2295 12.4963 29.0417 12.4963H27.625C26.6857 12.4963 25.7848 12.8256 25.1207 13.4116C24.4565 13.9977 24.0833 14.7925 24.0833 15.6213Z"/>

</symbol>

</svg>
